<svg width="89" height="89" viewBox="0 0 89 89" fill="none" xmlns="http://www.w3.org/2000/svg">
<g clip-path="url(#clip0)">
<path d="M82.4591 54.0341V39.35C82.4591 36.1858 79.8846 33.6113 76.7203 33.6113H25.6672C24.9452 33.6113 24.3601 34.1964 24.3601 34.9184C24.3601 35.6405 24.9452 36.2255 25.6672 36.2255H76.7203C78.4433 36.2255 79.8448 37.6271 79.8448 39.35V53.9882H73.977V50.9939C73.977 47.8506 71.4198 45.2934 68.2764 45.2934H54.5211C51.378 45.2934 48.8208 47.8506 48.8208 50.9939V53.9882H40.1792V50.9939C40.1792 47.8506 37.622 45.2934 34.4788 45.2934H20.7236C17.5802 45.2934 15.023 47.8506 15.023 50.9939V53.9882H9.15515V39.35C9.15515 37.6271 10.5567 36.2255 12.2797 36.2255H20.4386C21.1607 36.2255 21.7457 35.6405 21.7457 34.9184C21.7457 34.1964 21.1607 33.6113 20.4386 33.6113H12.2797C9.11541 33.6113 6.54093 36.1856 6.54093 39.35V54.0341C2.86744 54.4396 0 57.5612 0 61.341V80.9936C0 81.7156 0.585235 82.3007 1.30711 82.3007H20.4386C21.1607 82.3007 21.7457 81.7156 21.7457 80.9936C21.7457 80.2715 21.1607 79.6865 20.4386 79.6865H2.61421V66.0593H69.4005C70.1226 66.0593 70.7076 65.4742 70.7076 64.7522C70.7076 64.0301 70.1226 63.4451 69.4005 63.4451H2.61421V61.3412C2.61421 58.7283 4.73974 56.6028 7.35256 56.6028H81.6473C84.2601 56.6028 86.3858 58.7283 86.3858 61.3412V63.4451H74.629C73.9069 63.4451 73.3219 64.0301 73.3219 64.7522C73.3219 65.4742 73.9069 66.0593 74.629 66.0593H86.3858V79.6865H25.6672C24.9452 79.6865 24.3601 80.2715 24.3601 80.9936C24.3601 81.7156 24.9452 82.3007 25.6672 82.3007H87.6929C88.4148 82.3007 89 81.7156 89 80.9936V61.341C89 57.5612 86.1325 54.4396 82.4591 54.0341ZM51.435 50.9941C51.435 49.2922 52.8193 47.9078 54.5211 47.9078H68.2764C69.9783 47.9078 71.3628 49.2922 71.3628 50.9941V53.9884H51.435V50.9941ZM17.6372 50.9941C17.6372 49.2922 19.0217 47.9078 20.7236 47.9078H34.4788C36.1807 47.9078 37.565 49.2922 37.565 50.9941V53.9884H17.6372V50.9941Z" fill="white"/>
<path d="M34.0571 29.4002H41.0573C41.7793 29.4002 42.3644 28.8152 42.3644 28.0931C42.3644 27.3711 41.7793 26.786 41.0573 26.786H37.0282L42.0209 21.3389C42.7741 20.5168 42.1699 19.1487 41.0573 19.1487H34.7148C33.9928 19.1487 33.4077 19.7337 33.4077 20.4558C33.4077 21.1778 33.9928 21.7629 34.7148 21.7629H38.0861L33.0935 27.21C32.3402 28.0321 32.9443 29.4002 34.0571 29.4002Z" fill="white"/>
<path d="M49.2417 21.6215H60.522C61.244 21.6215 61.8291 21.0364 61.8291 20.3144C61.8291 19.5923 61.244 19.0072 60.522 19.0072H52.2128L61.4856 8.88989C62.2392 8.06781 61.6346 6.69971 60.522 6.69971H49.902C49.1897 6.69971 48.5949 7.29453 48.5949 8.00681C48.5949 8.7191 49.1897 9.31392 49.902 9.31392H57.5508L48.2781 19.4313C47.5245 20.2532 48.129 21.6215 49.2417 21.6215Z" fill="white"/>
</g>
<defs>
<clipPath id="clip0">
<rect width="89" height="89" fill="white"/>
</clipPath>
</defs>
</svg>
