<svg width="89" height="89" viewBox="0 0 89 89" fill="none" xmlns="http://www.w3.org/2000/svg">
<path d="M85.8113 47.6887L68.5481 30.4255C68.1616 30.0366 67.7018 29.7282 67.1952 29.5184C66.6887 29.3086 66.1455 29.2014 65.5972 29.2031H41.7188V31.9844H48.6719V52.8438H51.4531V31.9844H65.5972C65.78 31.9843 65.9611 32.0202 66.13 32.0901C66.299 32.16 66.4525 32.2625 66.5817 32.3918L68.9555 34.7656H62.5781C61.8405 34.7656 61.1331 35.0587 60.6115 35.5803C60.0899 36.1018 59.7969 36.8093 59.7969 37.5469V50.0625C59.7969 50.8002 60.0899 51.5076 60.6115 52.0292C61.1331 52.5507 61.8405 52.8438 62.5781 52.8438H83.4375V63.9688C83.4375 64.3376 83.291 64.6913 83.0302 64.9521C82.7694 65.2129 82.4157 65.3594 82.0469 65.3594H79.1544C78.8219 63.0442 77.6658 60.9265 75.8983 59.3946C74.1308 57.8628 71.8702 57.0196 69.5312 57.0196C67.1923 57.0196 64.9317 57.8628 63.1642 59.3946C61.3967 60.9265 60.2406 63.0442 59.9081 65.3594H40.2169C39.8844 63.0442 38.7283 60.9265 36.9608 59.3946C35.1933 57.8628 32.9327 57.0196 30.5938 57.0196C28.2548 57.0196 25.9942 57.8628 24.2267 59.3946C22.4592 60.9265 21.3031 63.0442 20.9706 65.3594H18.0781C17.7093 65.3594 17.3556 65.2129 17.0948 64.9521C16.834 64.6913 16.6875 64.3376 16.6875 63.9688V51.4531H13.9062V63.9688C13.9062 65.0752 14.3458 66.1364 15.1282 66.9187C15.9105 67.7011 16.9717 68.1406 18.0781 68.1406H20.9706C21.2742 70.2551 22.2669 72.2104 23.795 73.7031H2.78125V76.4844H69.5312C71.8696 76.4799 74.1283 75.6346 75.895 74.1028C77.6618 72.5709 78.8186 70.4548 79.1544 68.1406H82.0469C83.1533 68.1406 84.2145 67.7011 84.9968 66.9187C85.7792 66.1364 86.2188 65.0752 86.2188 63.9688V48.6719C86.2187 48.3031 86.0721 47.9495 85.8113 47.6887ZM23.6406 66.75C23.6406 65.3748 24.0484 64.0305 24.8124 62.8871C25.5765 61.7436 26.6624 60.8524 27.9329 60.3262C29.2034 59.7999 30.6015 59.6622 31.9502 59.9305C33.299 60.1988 34.5379 60.861 35.5104 61.8334C36.4828 62.8058 37.145 64.0448 37.4133 65.3935C37.6816 66.7423 37.5439 68.1404 37.0176 69.4109C36.4913 70.6814 35.6001 71.7673 34.4567 72.5313C33.3133 73.2954 31.9689 73.7031 30.5938 73.7031C28.7503 73.7009 26.9831 72.9677 25.6796 71.6642C24.3761 70.3607 23.6428 68.5934 23.6406 66.75ZM37.3925 73.7031C38.9206 72.2104 39.9133 70.2551 40.2169 68.1406H59.9081C60.2117 70.2551 61.2044 72.2104 62.7325 73.7031H37.3925ZM69.5312 73.7031C68.1561 73.7031 66.8117 73.2954 65.6683 72.5313C64.5249 71.7673 63.6337 70.6814 63.1074 69.4109C62.5811 68.1404 62.4434 66.7423 62.7117 65.3935C62.98 64.0448 63.6422 62.8058 64.6146 61.8334C65.5871 60.861 66.826 60.1988 68.1748 59.9305C69.5235 59.6622 70.9216 59.7999 72.1921 60.3262C73.4626 60.8524 74.5485 61.7436 75.3126 62.8871C76.0766 64.0305 76.4844 65.3748 76.4844 66.75C76.4822 68.5934 75.7489 70.3607 74.4454 71.6642C73.1419 72.9677 71.3747 73.7009 69.5312 73.7031ZM62.5781 50.0625V37.5469H71.7368L83.4375 49.2476V50.0625H62.5781Z" fill="white"/>
<path d="M31.9844 65.3594H29.2031V68.1406H31.9844V65.3594Z" fill="white"/>
<path d="M70.9219 65.3594H68.1406V68.1406H70.9219V65.3594Z" fill="white"/>
<path d="M9.73438 61.1875H2.78125V63.9688H9.73438V61.1875Z" fill="white"/>
<path d="M9.73438 55.625H5.5625V58.4062H9.73438V55.625Z" fill="white"/>
<path d="M9.73438 50.0625H6.95312V52.8438H9.73438V50.0625Z" fill="white"/>
<path d="M20.8594 48.6719C24.4349 48.6719 27.9301 47.6116 30.903 45.6252C33.876 43.6387 36.1931 40.8153 37.5614 37.5119C38.9297 34.2086 39.2877 30.5737 38.5901 27.0669C37.8926 23.5601 36.1708 20.3389 33.6425 17.8106C31.1143 15.2823 27.8931 13.5605 24.3862 12.863C20.8794 12.1655 17.2445 12.5235 13.9412 13.8917C10.6378 15.26 7.81441 17.5772 5.82796 20.5501C3.84151 23.523 2.78125 27.0182 2.78125 30.5938C2.78677 35.3867 4.6932 39.9817 8.08231 43.3708C11.4714 46.7599 16.0665 48.6664 20.8594 48.6719ZM20.8594 15.2969C23.8848 15.2969 26.8423 16.194 29.3579 17.8749C31.8734 19.5557 33.8341 21.9448 34.9918 24.7399C36.1496 27.535 36.4526 30.6107 35.8623 33.578C35.2721 36.5453 33.8152 39.271 31.6759 41.4103C29.5366 43.5496 26.8109 45.0065 23.8436 45.5967C20.8763 46.1869 17.8007 45.884 15.0055 44.7262C12.2104 43.5684 9.82133 41.6078 8.14049 39.0922C6.45965 36.5767 5.5625 33.6192 5.5625 30.5938C5.56728 26.5382 7.18045 22.6502 10.0481 19.7825C12.9158 16.9148 16.8039 15.3017 20.8594 15.2969Z" fill="white"/>
<path d="M20.8594 43.1094C21.2282 43.1093 21.5818 42.9627 21.8425 42.7019C22.7381 41.8064 30.5938 33.7783 30.5938 27.8125C30.5938 25.2308 29.5682 22.7548 27.7426 20.9293C25.9171 19.1037 23.4411 18.0781 20.8594 18.0781C18.2777 18.0781 15.8017 19.1037 13.9761 20.9293C12.1506 22.7548 11.125 25.2308 11.125 27.8125C11.125 33.7783 18.9806 41.8064 19.8762 42.7019C20.1369 42.9627 20.4906 43.1093 20.8594 43.1094ZM20.8594 20.8594C22.7028 20.8616 24.4701 21.5948 25.7735 22.8983C27.077 24.2018 27.8103 25.9691 27.8125 27.8125C27.8125 31.3808 23.4362 36.8947 20.8594 39.7037C18.2825 36.8947 13.9062 31.3808 13.9062 27.8125C13.9085 25.9691 14.6417 24.2018 15.9452 22.8983C17.2487 21.5948 19.016 20.8616 20.8594 20.8594Z" fill="white"/>
<path d="M25.0312 27.8125C25.0312 26.9874 24.7866 26.1808 24.3282 25.4947C23.8698 24.8087 23.2182 24.274 22.4559 23.9582C21.6936 23.6424 20.8547 23.5598 20.0455 23.7208C19.2362 23.8818 18.4929 24.2791 17.9094 24.8625C17.326 25.446 16.9286 26.1893 16.7677 26.9986C16.6067 27.8079 16.6893 28.6467 17.0051 29.409C17.3208 30.1713 17.8555 30.8229 18.5416 31.2813C19.2277 31.7397 20.0343 31.9844 20.8594 31.9844C21.9658 31.9844 23.027 31.5448 23.8093 30.7625C24.5917 29.9801 25.0312 28.919 25.0312 27.8125ZM19.4688 27.8125C19.4688 27.5375 19.5503 27.2686 19.7031 27.0399C19.8559 26.8112 20.0731 26.633 20.3272 26.5277C20.5813 26.4225 20.8609 26.3949 21.1307 26.4486C21.4004 26.5023 21.6482 26.6347 21.8427 26.8292C22.0372 27.0237 22.1696 27.2714 22.2233 27.5412C22.2769 27.811 22.2494 28.0906 22.1441 28.3447C22.0389 28.5988 21.8607 28.816 21.632 28.9688C21.4033 29.1216 21.1344 29.2031 20.8594 29.2031C20.4906 29.2031 20.1368 29.0566 19.8761 28.7958C19.6153 28.535 19.4688 28.1813 19.4688 27.8125Z" fill="white"/>
<path d="M61.1875 55.625H55.625V58.4062H61.1875V55.625Z" fill="white"/>
</svg>
