<svg width="89" height="89" viewBox="0 0 89 89" fill="none" xmlns="http://www.w3.org/2000/svg">
<g clip-path="url(#clip0)">
<path d="M68.1743 65.1241C67.7582 64.9855 67.3321 64.84 66.9076 64.6885V58.4701C68.0528 58.698 68.7363 59.2461 68.7935 59.2932C69.3372 59.7575 70.1544 59.6973 70.6241 59.1566C71.0962 58.613 71.0383 57.7896 70.4948 57.3176C70.4162 57.2495 69.0833 56.12 66.9078 55.8312V55.3172C66.9078 54.5972 66.3241 54.0137 65.6043 54.0137C64.8844 54.0137 64.3007 54.5974 64.3007 55.3172V55.9256C64.0805 55.9698 63.8563 56.0224 63.6272 56.0874C61.6231 56.656 60.1447 58.2919 59.7692 60.3568C59.4377 62.1794 60.0689 63.9299 61.4164 64.9252C62.1444 65.463 63.0528 65.9557 64.3007 66.4772V74.3392C63.1441 74.2727 62.3777 74.0293 61.092 73.2373C60.4789 72.8596 59.676 73.0506 59.2985 73.6636C58.9209 74.2765 59.1116 75.0796 59.7247 75.4571C61.5077 76.5555 62.7179 76.8709 64.3009 76.9468V77.618C64.3009 78.338 64.8846 78.9215 65.6044 78.9215C66.3243 78.9215 66.908 78.3378 66.908 77.618V76.8474C69.9677 76.2891 71.8996 73.8647 72.2793 71.4751C72.7358 68.5992 71.1247 66.1062 68.1743 65.1241ZM62.965 62.828C62.3179 62.3499 62.2148 61.4791 62.334 60.8234C62.4861 59.9866 63.0834 58.9711 64.3004 58.6081V63.6166C63.7942 63.3665 63.3383 63.1037 62.965 62.828ZM69.7038 71.066C69.502 72.3365 68.5576 73.6891 66.9075 74.1741V67.4483C67.0528 67.4977 67.199 67.5472 67.3507 67.5978C69.0779 68.1728 69.9576 69.4693 69.7038 71.066Z" fill="white"/>
<path d="M64.4461 9.73993C64.4461 8.44143 63.3897 7.38525 62.0914 7.38525H10.1486C8.8503 7.38525 7.79395 8.44161 7.79395 9.73993V13.2533C7.79395 13.9733 8.37766 14.5569 9.09748 14.5569C9.8173 14.5569 10.401 13.9732 10.401 13.2533V9.99233H61.8387V22.6036H10.4012V19.3483C10.4012 18.6283 9.81748 18.0447 9.09766 18.0447C8.37783 18.0447 7.79412 18.6285 7.79412 19.3483V22.8561C7.79412 24.1545 8.85047 25.2108 10.1488 25.2108H62.0914C63.3899 25.2108 64.4461 24.1545 64.4461 22.8561V9.73993Z" fill="white"/>
<path d="M18.9867 33.6055C18.9867 32.4229 18.0246 31.4609 16.8422 31.4609H10.3985C9.21599 31.4609 8.25403 32.4231 8.25403 33.6055V40.0489C8.25403 41.2315 9.21617 42.1936 10.3985 42.1936H16.8422C18.0247 42.1936 18.9867 41.2315 18.9867 40.0489V33.6055ZM16.3794 39.5864H10.8611V34.068H16.3794V39.5864Z" fill="white"/>
<path d="M33.9866 33.6055C33.9866 32.4229 33.0244 31.4609 31.8419 31.4609H25.3984C24.2159 31.4609 23.2539 32.4231 23.2539 33.6055V40.0489C23.2539 41.2315 24.216 42.1936 25.3984 42.1936H31.8419C33.0244 42.1936 33.9866 41.2315 33.9866 40.0489V33.6055ZM31.3793 39.5864H25.861V34.068H31.3793V39.5864Z" fill="white"/>
<path d="M40.3982 31.4609C39.2157 31.4609 38.2535 32.4231 38.2535 33.6055V40.0489C38.2535 41.2315 39.2157 42.1936 40.3982 42.1936H46.8417C48.0242 42.1936 48.9862 41.2315 48.9862 40.0489V33.6055C48.9862 32.4229 48.0241 31.4609 46.8417 31.4609H40.3982ZM46.3791 39.5864H40.8608V34.068H46.3791V39.5864Z" fill="white"/>
<path d="M61.8416 31.4609H55.3979C54.2154 31.4609 53.2534 32.4231 53.2534 33.6055V40.0489C53.2534 41.2315 54.2156 42.1936 55.3979 42.1936H61.8416C63.0241 42.1936 63.9861 41.2315 63.9861 40.0489V33.6055C63.9861 32.4229 63.024 31.4609 61.8416 31.4609ZM61.3788 39.5864H55.8605V34.068H61.3788V39.5864Z" fill="white"/>
<path d="M18.9867 49.4739C18.9867 48.2913 18.0246 47.3293 16.8422 47.3293H10.3985C9.21599 47.3293 8.25403 48.2915 8.25403 49.4739V55.9173C8.25403 57.0999 9.21617 58.062 10.3985 58.062H16.8422C18.0247 58.062 18.9867 57.0999 18.9867 55.9173V49.4739ZM16.3794 55.4548H10.8611V49.9364H16.3794V55.4548Z" fill="white"/>
<path d="M33.9866 49.4739C33.9866 48.2913 33.0244 47.3293 31.8419 47.3293H25.3984C24.2159 47.3293 23.2539 48.2915 23.2539 49.4739V55.9173C23.2539 57.0999 24.216 58.062 25.3984 58.062H31.8419C33.0244 58.062 33.9866 57.0999 33.9866 55.9173V49.4739ZM31.3793 55.4548H25.861V49.9364H31.3793V55.4548Z" fill="white"/>
<path d="M31.8419 63.1975H25.3984C24.2159 63.1975 23.2539 64.1596 23.2539 65.342V71.7855C23.2539 72.968 24.216 73.9302 25.3984 73.9302H31.8419C33.0244 73.9302 33.9866 72.968 33.9866 71.7855V65.342C33.9866 64.1596 33.0244 63.1975 31.8419 63.1975ZM31.3793 71.3231H25.861V65.8048H31.3793V71.3231Z" fill="white"/>
<path d="M65.7286 43.9355C59.0901 43.9355 53.1135 46.822 48.9863 51.4049V49.4737C48.9863 48.2912 48.0242 47.329 46.8418 47.329H40.3984C39.2158 47.329 38.2537 48.2912 38.2537 49.4737V55.9172C38.2537 57.0997 39.2158 58.0617 40.3984 58.0617H44.8242C44.1676 59.6887 43.6957 61.4093 43.4346 63.1973H40.3984C39.2158 63.1973 38.2537 64.1594 38.2537 65.342V71.7854C38.2537 72.968 39.2158 73.9299 40.3984 73.9299H44.4682C47.5547 82.6978 55.9188 89 65.7286 89C78.153 89 88.2609 78.892 88.2609 66.4677C88.2609 54.0433 78.153 43.9355 65.7286 43.9355ZM40.8607 55.4546V49.9363H46.3791V54.9347C46.2764 55.1064 46.1759 55.2799 46.0777 55.4546H40.8607ZM40.8607 71.323V65.8047H43.2069C43.2005 66.0249 43.1965 66.2459 43.1965 66.4678C43.1965 68.1343 43.38 69.7588 43.7249 71.323H40.8607ZM65.7286 86.3927C54.742 86.3927 45.8035 77.4543 45.8035 66.4677C45.8035 55.481 54.742 46.5426 65.7286 46.5426C76.7152 46.5426 85.6536 55.481 85.6536 66.4677C85.6536 77.4543 76.7154 86.3927 65.7286 86.3927Z" fill="white"/>
<path d="M65.7285 49.1702C56.1906 49.1702 48.4309 56.9299 48.4309 66.4678C48.4309 76.0058 56.1906 83.7654 65.7285 83.7654C75.2665 83.7654 83.0262 76.0058 83.0262 66.4678C83.0262 56.9299 75.2665 49.1702 65.7285 49.1702ZM65.7285 81.1584C57.6282 81.1584 51.038 74.5682 51.038 66.4678C51.038 58.3674 57.6282 51.7772 65.7285 51.7772C73.8289 51.7772 80.4191 58.3674 80.4191 66.4678C80.4191 74.5682 73.8289 81.1584 65.7285 81.1584Z" fill="white"/>
<path d="M16.8422 63.1975H10.3985C9.21599 63.1975 8.25403 64.1596 8.25403 65.342V71.7855C8.25403 72.968 9.21617 73.9302 10.3985 73.9302H16.8422C18.0247 73.9302 18.9867 72.968 18.9867 71.7855V65.342C18.9867 64.1596 18.0246 63.1975 16.8422 63.1975ZM16.3794 71.3231H10.8611V65.8048H16.3794V71.3231Z" fill="white"/>
<path d="M46.8356 82.6409H8.34342C5.58807 82.6409 3.34638 80.3992 3.34638 77.6438V7.60411C3.34638 4.84876 5.58807 2.60707 8.34342 2.60707H63.897C66.6523 2.60707 68.894 4.84876 68.894 7.60411V39.5977C68.894 40.3177 69.4777 40.9012 70.1975 40.9012C70.9174 40.9012 71.5011 40.3175 71.5011 39.5977V7.60411C71.5011 3.4112 68.0899 0 63.897 0H8.34342C4.15034 0 0.739136 3.4112 0.739136 7.60411V77.6438C0.739136 81.8369 4.15034 85.2481 8.34325 85.2481H46.8356C47.5556 85.2481 48.1391 84.6644 48.1391 83.9446C48.1391 83.2247 47.5556 82.6409 46.8356 82.6409Z" fill="white"/>
</g>
<defs>
<clipPath id="clip0">
<rect width="89" height="89" fill="white"/>
</clipPath>
</defs>
</svg>
