<svg width="89" height="89" viewBox="0 0 89 89" fill="none" xmlns="http://www.w3.org/2000/svg">
<path d="M82.0646 77.9726L68.4346 54.3676C73.7647 48.5806 76.9628 40.89 76.9628 32.4378C76.9628 23.4527 73.3079 15.3813 67.4447 9.51815C61.5815 3.65497 53.5101 0 44.525 0C35.5399 0 27.4685 3.65497 21.6053 9.51815C15.7421 15.3813 12.0872 23.4527 12.0872 32.4378C12.0872 40.89 15.2853 48.5806 20.6154 54.3676L6.98543 77.9726C6.75699 78.3534 6.68085 78.8864 6.83314 79.4194C7.13772 80.257 8.05146 80.6377 8.88906 80.3332L19.7778 75.9929L21.453 87.6431C21.5292 88.1 21.7576 88.5568 22.2145 88.7853C22.9759 89.2421 23.9658 88.9376 24.4227 88.1761L38.2049 64.3427C40.1847 64.7234 42.3168 64.9518 44.3727 64.9518C46.5048 64.9518 48.5607 64.7234 50.5405 64.3427L64.3227 88.1761C64.7796 88.9376 65.7695 89.166 66.5309 88.7853C66.9878 88.5568 67.2163 88.1 67.2924 87.6431L68.9676 75.9929L79.8564 80.3332C80.6939 80.6377 81.6077 80.257 81.9123 79.4194C82.3691 78.8864 82.293 78.3534 82.0646 77.9726ZM24.1181 82.5414L22.7475 73.4801C22.5952 72.6425 21.8337 72.0333 20.92 72.1095C20.7677 72.1095 20.6154 72.1856 20.4631 72.2618L12.011 75.6122L22.9759 56.652C26.4024 59.6978 30.5143 62.0583 35.083 63.4289L24.1181 82.5414ZM44.525 61.6776C36.4536 61.6776 29.1437 58.4033 23.8897 53.1493C18.6356 47.8953 15.3614 40.5854 15.3614 32.514C15.3614 24.4426 18.6356 17.1327 23.8897 11.8786C29.1437 6.47234 36.4536 3.1981 44.525 3.1981C52.5964 3.1981 59.9063 6.47234 65.1603 11.7264C70.4144 16.9804 73.6886 24.2903 73.6886 32.3617C73.6886 40.4331 70.4144 47.743 65.1603 52.997C59.9063 58.4033 52.5964 61.6776 44.525 61.6776ZM68.5869 72.2618C68.4346 72.1856 68.2823 72.1095 68.13 72.1095C67.2924 71.9572 66.4548 72.5663 66.3025 73.4801L64.9319 82.5414L53.967 63.4289C58.5357 62.0583 62.6475 59.6978 66.0741 56.652L77.039 75.6122L68.5869 72.2618Z" fill="white"/>
<path d="M59.4493 26.8031C59.0686 26.27 58.6117 25.8893 58.0787 25.6609C57.5457 25.4324 56.9365 25.2802 56.3274 25.3563H50.0073L48.0276 19.1124C47.723 18.1987 47.0377 17.4372 46.2762 16.9803C45.7432 16.7519 45.2102 16.5996 44.601 16.5996C43.9919 16.5996 43.4588 16.7519 42.9258 16.9803C42.0882 17.4372 41.4791 18.1225 41.1745 19.1124L39.1947 25.3563H32.8747C32.2655 25.2802 31.6563 25.4324 31.1233 25.6609C30.5903 25.8893 30.1334 26.27 29.7527 26.8031C29.1436 27.6407 28.9913 28.5544 29.1436 29.4681C29.2958 30.3819 29.7527 31.2195 30.5903 31.8286L35.9205 35.6359L33.8646 41.8798C33.8646 41.9559 33.8646 42.0321 33.7884 42.0321C33.6361 42.489 33.6361 43.022 33.7123 43.555C33.7884 44.088 34.0168 44.621 34.3976 45.0779C35.0067 45.9155 35.8443 46.3724 36.7581 46.5246C37.6718 46.6769 38.6617 46.4485 39.4231 45.8393L44.7533 41.9559L50.0835 45.8393C50.9211 46.4485 51.8348 46.6008 52.7486 46.5246C53.6623 46.3724 54.4999 45.9155 55.1091 45.0779C55.4898 44.621 55.6421 44.088 55.7944 43.555C55.8705 43.022 55.8705 42.5651 55.7182 42.0321C55.7182 41.9559 55.7182 41.8798 55.6421 41.8798L53.5861 35.6359L58.9163 31.8286C59.7539 31.2195 60.2108 30.3819 60.3631 29.4681C60.2869 28.6305 60.0585 27.6407 59.4493 26.8031ZM56.7843 29.2397L56.7081 29.3158L50.5403 33.8084C50.0073 34.1891 49.7027 34.9506 49.9312 35.5597L52.2917 42.7935V42.8697C52.2917 42.9458 52.2917 43.022 52.2917 43.0981C52.2917 43.1743 52.2917 43.2504 52.2155 43.2504C52.1394 43.3265 52.0632 43.4027 51.911 43.4027C51.8348 43.4027 51.6825 43.4027 51.6064 43.3266L45.3625 38.7578C45.0579 38.5294 44.7533 38.4533 44.3726 38.4533C44.068 38.4533 43.6873 38.5294 43.3827 38.7578L37.1388 43.3266C37.0626 43.4027 36.9104 43.4027 36.8342 43.4027C36.7581 43.4027 36.6058 43.3265 36.5296 43.2504C36.4535 43.1743 36.4535 43.0981 36.4535 43.0981C36.4535 43.022 36.4535 42.9458 36.4535 42.8697V42.7935L38.814 35.5597C39.0424 34.8744 38.814 34.1891 38.2048 33.8084L32.3416 29.3158L32.2655 29.2397C32.1894 29.1636 32.1132 29.0874 32.1132 29.0113C32.1132 28.9351 32.1132 28.7828 32.1894 28.7067C32.1894 28.7067 32.1894 28.6305 32.2655 28.6305C32.3416 28.5544 32.3416 28.5544 32.4178 28.5544C32.4939 28.5544 32.5701 28.4783 32.6462 28.4783C32.7224 28.4783 32.7985 28.4783 32.8747 28.4783H40.3369C41.0222 28.4783 41.6314 28.0214 41.8598 27.3361L44.2203 20.0261C44.2203 19.95 44.2964 19.7977 44.4487 19.7977C44.5249 19.7977 44.601 19.7216 44.601 19.7216C44.6772 19.7216 44.7533 19.7216 44.7533 19.7977C44.8295 19.8739 44.9056 19.95 44.9817 20.0261L47.3422 27.3361C47.5707 27.9452 48.1798 28.4783 48.8652 28.4783H56.3274C56.4035 28.4783 56.4797 28.4783 56.5558 28.4783C56.632 28.4783 56.7081 28.4783 56.7843 28.5544C56.8604 28.5544 56.8604 28.6305 56.9365 28.6305C56.9365 28.6305 56.9365 28.7067 57.0127 28.7067C57.0888 28.7828 57.0888 28.859 57.0888 29.0113C56.9365 29.0874 56.8604 29.1636 56.7843 29.2397Z" fill="white"/>
<path d="M62.4191 14.5436C57.8503 9.97484 51.5303 7.15747 44.5249 7.15747C37.5196 7.15747 31.1995 9.97484 26.6308 14.5436C22.0621 19.1123 19.2448 25.4323 19.2448 32.4377C19.2448 39.443 22.0621 45.7631 26.6308 50.3318C31.1995 54.9005 37.5196 57.7179 44.5249 57.7179C51.5303 57.7179 57.8503 54.9005 62.4191 50.3318C66.9878 45.7631 69.8051 39.443 69.8051 32.4377C69.8051 25.4323 66.9878 19.1123 62.4191 14.5436ZM60.2109 48.0474C56.1752 52.0831 50.6166 54.5198 44.5249 54.5198C38.4333 54.5198 32.8747 52.007 28.9152 48.0474C24.8795 44.0117 22.4428 38.5293 22.4428 32.4377C22.4428 26.3461 24.9556 20.7875 28.9152 16.8279C32.8747 12.7922 38.4333 10.2794 44.5249 10.2794C50.6166 10.2794 56.1752 12.7922 60.1347 16.7518C64.1704 20.7875 66.607 26.2699 66.607 32.3615C66.607 38.4531 64.1704 44.0879 60.2109 48.0474Z" fill="white"/>
</svg>
